<svg width="110" height="84" viewBox="0 0 110 84" fill="none" xmlns="http://www.w3.org/2000/svg">
<path d="M38.5008 13.25H37.0008C35.8188 12.6451 35.2937 12.2451 35.0008 11.25C35.0008 11.25 34.5224 8.82411 34.5008 7.25C34.4766 5.48199 35.0008 2.75 35.0008 2.75C35.469 1.48012 35.9041 1.10952 37.0008 0.75H38.5008C39.5029 1.11606 39.9658 1.4882 40.5008 2.75C40.5008 2.75 41.025 5.48199 41.0008 7.25C40.9793 8.82411 40.5008 11.25 40.5008 11.25C40.104 12.319 39.6768 12.8193 38.5008 13.25Z" fill="#F05629"/>
<path d="M48.0008 11.25C47.4649 11.9393 47.0016 13.25 47.0016 13.25C45.8196 12.6451 45.2945 12.2451 45.0016 11.25C45.0016 11.25 44.5232 8.82411 44.5016 7.25C44.4774 5.48199 45.0016 2.75 45.0016 2.75C45.4698 1.48012 45.9049 1.10952 47.0016 0.75H48.5016C49.5037 1.11606 49.9666 1.4882 50.5016 2.75C50.5016 2.75 50.9696 5.18913 51.0008 6.94949V9.25C51.0008 9.25 48.865 10.1384 48.0008 11.25Z" fill="#F05629"/>
<path d="M59.5016 0.75C60.5037 1.11606 60.9666 1.4882 61.5016 2.75C61.5016 2.75 61.9696 5.18913 62.0008 6.94949V9.75H55.5016C55.5016 9.75 55.5232 8.82411 55.5016 7.25C55.4774 5.48199 56.0016 2.75 56.0016 2.75C56.4698 1.48012 56.9049 1.10952 58.0016 0.75H59.5016Z" fill="#F05629"/>
<path d="M69.5016 0.75C70.5037 1.11606 70.9666 1.4882 71.5016 2.75C71.5016 2.75 71.9696 5.18913 72.0008 6.94949V9.75H65.5016C65.5016 9.75 65.5232 8.82411 65.5016 7.25C65.4774 5.48199 66.0016 2.75 66.0016 2.75C66.4698 1.48012 66.9049 1.10952 68.0016 0.75H69.5016Z" fill="#F05629"/>
<path d="M43.5008 15.25C41.5008 15.75 37.8485 17.1703 34.5008 16.25V34.25C37.0777 37.6029 38.7732 39.1754 42.5008 41.25V45.75H66.5008V41.25C70.4519 39.006 72.3987 37.2068 75.5008 33.25V15.25C74.8642 14.1382 74.4139 13.6083 73.5008 12.75H50.5008C51.0682 18.7482 54.3619 20.0964 63.5008 20.25C65.0263 20.462 65.5008 20.7737 65.5008 21.75C65.5008 22.7263 64.6302 23.114 63.5008 23.25C57.8598 24.1625 56.3418 26.5362 54.5008 31.75C54.5008 31.75 53.5008 32.25 51.5008 31.75C49.5008 31.25 56.0008 23.25 55.0008 23.25C54.0008 23.25 45.5008 14.75 43.5008 15.25Z" fill="#F05629"/>
<path d="M7.5 44.25H2L14.5 12.75H30.5V16.75H18.5L28.5 44.25H23.5L15.5 22.25L7.5 44.25Z" fill="#525252" fill-opacity="0.933333"/>
<path d="M102.5 44.25H108L95.5 12.75H79.5V16.75H91.5L81.5 44.25H86.5L94.5 22.25L102.5 44.25Z" fill="#525252" fill-opacity="0.933333"/>
<path d="M30.5 47.75H0C2.11885 55.6166 8 61.25 15 61.25C22 61.25 29.207 55.9713 30.5 47.75Z" fill="#525252" fill-opacity="0.933333"/>
<path d="M110 47.75H79.5C81.6189 55.6166 87.5 61.25 94.5 61.25C101.5 61.25 108.707 55.9713 110 47.75Z" fill="#525252" fill-opacity="0.933333"/>
<path d="M71.5 83.25H38L39 61.75H63.5V57.75H39V50.25H70.5L71.5 83.25Z" fill="#525252" fill-opacity="0.933333"/>
</svg>
