<svg width="80" height="80" viewBox="0 0 80 80" fill="none" xmlns="http://www.w3.org/2000/svg">
<path d="M9.28112 14.4557C10.9459 14.7766 12.4501 14.4356 13.6736 13.6935C13.8742 13.5732 14.1349 13.6935 14.175 13.9142C14.8971 17.1031 17.8655 19.3494 21.215 19.0887C23.8626 18.8882 26.0488 17.1432 26.9513 14.8167C27.0316 14.6362 27.2121 14.5359 27.3926 14.6161C27.7536 14.7565 28.4155 14.9771 29.2378 15.0574C32.1261 15.2981 34.3725 12.9916 34.212 10.0834C34.0917 7.75684 32.3267 5.93171 30.1404 5.61081C29.1175 2.14105 25.768 -0.265721 22.0173 0.0351255C19.1893 0.255746 16.8426 1.96054 15.6593 4.3272C15.5389 4.54782 15.2581 4.58793 15.0977 4.40742C13.8742 3.02353 12.0289 2.20122 10.0433 2.36167C6.15224 2.66252 3.40442 6.57351 4.7683 10.5447C5.45023 12.5303 7.21525 14.0746 9.28112 14.4557Z" fill="#525252" fill-opacity="0.933333"/>
<path d="M31.6054 20.1717L55.3328 0.135381C55.5334 -0.0451269 55.8343 -0.0451269 56.0348 0.135381L65.0404 7.73676V3.66531C65.0404 3.40458 65.241 3.20401 65.4817 3.20401H71.3183C71.559 3.20401 71.7595 3.40458 71.7595 3.66531V13.4127L79.7623 20.1717C79.9027 20.2921 79.9829 20.4726 79.9829 20.6731V21.8765C79.9829 22.2375 79.7021 22.5183 79.3812 22.5183H31.9865C31.6455 22.5183 31.3848 22.2375 31.3848 21.8765V20.6731C31.3848 20.4726 31.465 20.2921 31.6054 20.1717Z" fill="#F05629"/>
<path d="M35.9181 26.4492H75.4705C75.8115 26.4492 76.0722 26.9907 76.0722 27.6526V74.4242C76.0722 75.086 75.7914 75.6275 75.4705 75.6275H35.9181C35.5771 75.6275 35.3164 75.086 35.3164 74.4242V27.6526C35.3164 26.9907 35.5972 26.4492 35.9181 26.4492Z" fill="#F05629"/>
<path d="M49.7773 75.6279V57.3164H60.0666C60.548 57.3164 60.9491 57.7175 60.9491 58.1989V75.6279H49.7974H49.7773Z" fill="#F3F3F3"/>
<path d="M59.8867 34.3926H68.8722C69.2733 34.3926 69.6143 34.7335 69.6143 35.1347V43.4982C69.6143 43.8993 69.2733 44.2403 68.8722 44.2403H59.8867C59.4855 44.2403 59.1445 43.8993 59.1445 43.4982V35.1347C59.1445 34.7335 59.4855 34.3926 59.8867 34.3926Z" fill="#F3F3F3"/>
<path d="M52.3644 43.8782L30.2215 25.1856C28.3963 23.6413 25.7488 23.6413 23.9236 25.1856L20.6944 27.9133C19.9122 27.3517 18.9494 27.0107 17.9265 27.0107H12.471C9.84354 27.0107 7.69746 29.1568 7.69746 31.8042V38.8841L1.78065 43.8782C0.657459 44.8208 0.015625 46.2047 0.015625 47.6889V48.8121C0.015625 51.0985 1.58008 53.0239 3.68606 53.5855C3.68606 53.5855 3.68606 53.6055 3.68606 53.6256V75.0859C3.68606 77.7936 5.89232 79.9998 8.62007 79.9998H45.525C48.2327 79.9998 50.459 77.7936 50.459 75.0859V53.6256C50.459 53.6256 50.459 53.6055 50.459 53.5855C52.565 53.0239 54.1294 51.0985 54.1294 48.8121V47.6889C54.1294 46.2248 53.4876 44.8409 52.3644 43.8982V43.8782Z" fill="#F3F3F3"/>
<path d="M49.5556 47.2074L27.4127 28.5149C27.2121 28.3544 26.9514 28.3544 26.7508 28.5149L18.3469 35.5948V31.8041C18.3469 31.5634 18.1664 31.3629 17.9257 31.3629H12.4702C12.2496 31.3629 12.049 31.5634 12.049 31.8041V40.9097L4.58782 47.2074C4.44742 47.3278 4.36719 47.4882 4.36719 47.6687V48.7919C4.36719 49.1128 4.62793 49.3936 4.92878 49.3936H49.1745C49.4955 49.3936 49.7361 49.1329 49.7361 48.7919V47.6687C49.7361 47.4882 49.6559 47.3077 49.5155 47.2074H49.5556Z" fill="#525252" fill-opacity="0.933333"/>
<path d="M45.5446 53.0449H8.63972C8.31881 53.0449 8.07812 53.2856 8.07812 53.6065V75.0669C8.07812 75.3677 8.33886 75.6284 8.63972 75.6284H45.5446C45.8655 75.6284 46.1062 75.3878 46.1062 75.0669V53.6065C46.1062 53.3057 45.8455 53.0449 45.5446 53.0449Z" fill="#525252" fill-opacity="0.933333"/>
<path d="M39.3665 57.959H31.0028C30.6151 57.959 30.3008 58.2733 30.3008 58.661V66.4429C30.3008 66.8305 30.6151 67.1448 31.0028 67.1448H39.3665C39.7542 67.1448 40.0685 66.8305 40.0685 66.4429V58.661C40.0685 58.2733 39.7542 57.959 39.3665 57.959Z" fill="white"/>
<path d="M23.1615 57.959H14.7977C14.41 57.959 14.0957 58.2733 14.0957 58.661V66.4429C14.0957 66.8305 14.41 67.1448 14.7977 67.1448H23.1615C23.5492 67.1448 23.8635 66.8305 23.8635 66.4429V58.661C23.8635 58.2733 23.5492 57.959 23.1615 57.959Z" fill="white"/>
</svg>
