<svg width="84" height="80" viewBox="0 0 84 80" fill="none" xmlns="http://www.w3.org/2000/svg">
<path d="M41.9802 17.0383C45.7889 17.0383 48.896 10.7241 48.896 6.91556C48.896 3.10699 45.809 0 41.9802 0C38.1515 0 35.0645 3.08695 35.0645 6.91556C35.0645 10.7442 38.1515 17.0383 41.9802 17.0383Z" fill="#F05629"/>
<path d="M70.0232 17.1191C70.0232 17.1191 48.434 17.1592 48.3939 17.1592C48.0131 17.2194 47.8326 17.3196 47.7525 17.4198C46.229 19.1838 44.3246 20.4065 42.0996 20.4065C39.8745 20.4065 37.7296 19.3241 36.4066 17.3597C36.3264 17.2394 36.1059 17.1793 35.8052 17.1191H14.0155C12.011 17.1191 10.1668 18.4822 9.84604 20.4466C9.44513 22.9523 11.3695 25.1171 13.795 25.1171H31.5956C32.4375 25.1171 33.1391 25.7786 33.1592 26.6205C33.4599 36.2221 35.2239 72.2231 35.2239 72.2231C35.2239 74.0472 36.7273 75.5306 38.5916 75.5306C40.4558 75.5306 41.9593 74.0472 41.9593 72.2231C41.9593 74.0472 43.4627 75.5306 45.3269 75.5306C47.1912 75.5306 48.6946 74.0472 48.6946 72.2231C48.6946 72.2231 50.2582 36.2422 50.4386 26.6406C50.4386 25.7786 51.1402 25.1171 52.0022 25.1171H69.8228C71.8273 25.1171 73.6716 23.7541 73.9923 21.7896C74.3932 19.284 72.4688 17.1191 70.0433 17.1191H70.0232Z" fill="#F05629"/>
<path d="M31.675 31.9715C31.8354 29.4859 30.9533 27.0404 29.2695 25.2363C27.9665 23.8532 26.3228 22.9712 24.5588 22.6505C25.3205 20.8063 25.7415 18.882 25.7415 17.1982C25.7415 11.7059 21.2713 7.25586 15.7988 7.25586C10.3263 7.25586 5.85612 11.7059 5.85612 17.1982C5.85612 18.882 6.27709 20.8264 7.05887 22.6906C5.35499 23.0714 3.77137 23.9334 2.56862 25.2363C0.884785 27.0404 0.00278041 29.4859 0.163146 31.9715L1.20552 48.4485C1.20552 48.4485 1.20552 48.6089 1.20552 48.6289C1.20552 48.9898 1.24561 49.3506 1.2857 49.6312C1.2857 49.8717 1.34584 50.1123 1.38594 50.3528C1.90712 52.9587 3.51077 55.1436 5.7158 56.3864L6.25704 73.084C6.25704 76.8925 9.32403 79.9995 13.0926 79.9995C14.115 79.9995 15.0772 79.779 15.9391 79.3982C16.8011 79.779 17.7633 79.9995 18.7856 79.9995C22.5542 79.9995 25.6212 76.8925 25.6212 73.2243L26.1624 56.4064C28.4476 55.1035 30.0914 52.8184 30.5324 50.0722C30.5524 49.9519 30.5725 49.8316 30.5925 49.7114C30.6326 49.3506 30.6727 48.9898 30.6727 48.4686C30.6727 48.4686 30.6727 48.4686 30.6727 48.4285L31.7151 31.9715H31.675Z" fill="#F3F3F3"/>
<path d="M15.7786 25.7576C19.006 25.7576 21.6119 20.4256 21.6119 17.1984C21.6119 13.9711 19.006 11.3652 15.7786 11.3652C12.5513 11.3652 9.94531 13.9711 9.94531 17.1984C9.94531 20.4256 12.5513 25.7576 15.7786 25.7576Z" fill="#525252" fill-opacity="0.933333"/>
<path d="M15.8994 29.3248C17.7236 29.3248 19.2872 28.2825 20.53 26.759C20.6302 26.6388 20.7705 26.5987 20.9109 26.5987H22.9555C25.6216 26.5987 27.7464 28.944 27.566 31.7102L26.5237 48.3877C26.5237 48.508 26.5237 48.5882 26.5237 48.5882C26.5237 48.8087 26.4836 49.0091 26.4635 49.2096V49.3699C26.1228 51.4346 24.5391 53.0382 22.5346 53.3589C22.274 53.5994 22.0936 53.9202 22.0936 54.301L21.4922 73.0833C21.4922 74.6268 20.2694 75.8896 18.766 75.8896C17.2625 75.8896 15.9195 74.6268 15.9195 73.0833C15.9195 74.6268 14.5764 75.8896 13.073 75.8896C11.5696 75.8896 10.3468 74.6268 10.3468 73.0833L9.7454 54.301C9.7454 53.9202 9.56499 53.6195 9.3044 53.3589C7.29983 53.0382 5.73626 51.4346 5.37544 49.3699V49.2096C5.33535 49.0091 5.3153 48.8087 5.29526 48.5882C5.29526 48.5882 5.29526 48.508 5.29526 48.3877L4.25289 31.7102C4.07247 28.944 6.19731 26.5987 8.86339 26.5987L10.9081 26.5586C11.0484 26.5786 11.1887 26.6187 11.2889 26.739C12.5318 28.2624 14.0953 29.3048 15.9195 29.3048" fill="#525252" fill-opacity="0.933333"/>
<path d="M83.8137 31.6121C83.974 29.1265 83.092 26.681 81.4082 24.8769C80.1052 23.4938 78.4615 22.6118 76.6974 22.2911C77.4592 20.447 77.8801 18.5226 77.8801 16.8389C77.8801 11.3465 73.41 6.89648 67.9375 6.89648C62.465 6.89648 57.9948 11.3465 57.9948 16.8389C57.9948 18.5226 58.4158 20.467 59.1975 22.3312C57.4937 22.692 55.91 23.574 54.7073 24.8769C53.0235 26.681 52.1415 29.1265 52.3018 31.6121L53.3442 48.0892C53.3442 48.0892 53.3442 48.2495 53.3442 48.2696C53.3442 48.6304 53.3843 48.9912 53.4244 49.2718C53.4244 49.5124 53.4845 49.7529 53.5246 49.9934C54.0458 52.5993 55.6495 54.7842 57.8545 56.027L58.3957 72.7246C58.3957 76.5332 61.4627 79.6402 65.2313 79.6402C66.2536 79.6402 67.2158 79.4196 68.0778 79.0388C68.9397 79.4196 69.9019 79.6402 70.9243 79.6402C74.6929 79.6402 77.7599 76.5332 77.7599 72.8649L78.3011 56.0471C80.5863 54.7441 82.23 52.459 82.671 49.7128C82.6911 49.5925 82.7111 49.4723 82.7312 49.352C82.7713 48.9912 82.8114 48.6304 82.8114 48.1092C82.8114 48.1092 82.8114 48.1092 82.8114 48.0691L83.8537 31.6121H83.8137Z" fill="#F3F3F3"/>
<path d="M67.9368 25.3963C71.1642 25.3963 73.7701 20.0643 73.7701 16.837C73.7701 13.6098 71.1642 11.0039 67.9368 11.0039C64.7095 11.0039 62.1035 13.6098 62.1035 16.837C62.1035 20.0643 64.7095 25.3963 67.9368 25.3963Z" fill="#525252" fill-opacity="0.933333"/>
<path d="M68.0576 28.944C69.8818 28.944 71.4454 27.9016 72.6882 26.3782C72.7884 26.2579 72.9287 26.2178 73.0691 26.2178H75.1137C77.7798 26.2178 79.9046 28.5631 79.7242 31.3293L78.6819 48.0069C78.6819 48.1271 78.6819 48.2073 78.6819 48.2073C78.6819 48.4278 78.6418 48.6282 78.6217 48.8287V48.9891C78.281 51.0537 76.6973 52.6573 74.6928 52.978C74.4322 53.2186 74.2518 53.5393 74.2518 53.9202L73.6504 72.7024C73.6504 74.2459 72.4276 75.5087 70.9242 75.5087C69.4207 75.5087 68.0777 74.2459 68.0777 72.7024C68.0777 74.2459 66.7346 75.5087 65.2312 75.5087C63.7278 75.5087 62.505 74.2459 62.505 72.7024L61.9036 53.9202C61.9036 53.5393 61.7232 53.2386 61.4626 52.978C59.458 52.6573 57.8945 51.0537 57.5336 48.9891V48.8287C57.4936 48.6282 57.4735 48.4278 57.4534 48.2073C57.4534 48.2073 57.4534 48.1271 57.4534 48.0069L56.4111 31.3293C56.2307 28.5631 58.3555 26.2178 61.0216 26.2178L63.0662 26.1777C63.2066 26.1978 63.3469 26.2379 63.4471 26.3581C64.69 27.8816 66.2535 28.9239 68.0777 28.9239" fill="#525252" fill-opacity="0.933333"/>
</svg>
