<svg width="432" height="83" viewBox="0 0 432 83" fill="none" xmlns="http://www.w3.org/2000/svg">
<path d="M18 56.9719L39.5662 27.4293C42.0301 24.0541 47.3676 26.2421 46.7535 30.3757L44.8819 42.9719C44.2888 46.963 49.3077 49.222 51.902 46.1316L71.8345 22.3882C74.3984 19.3341 79.3633 21.5014 78.867 25.4579L78.0873 31.6731C77.6199 35.3986 82.0796 37.6571 84.8062 35.0757L94.2166 26.1664C97.2937 23.2531 102.198 26.4968 100.72 30.4683C94.3579 47.5694 87.3404 66.4811 87.9958 64.9081C88.7353 63.1335 108.645 41.8587 123.287 26.3911C125.87 23.6629 130.435 25.6905 130.157 29.4369L129.453 38.918C129.163 42.8281 134.087 44.7781 136.552 41.7293L144.016 32.4989C146.715 29.161 152.062 31.8404 151.003 36.0004L149.044 43.7004C147.983 47.8695 153.351 50.5453 156.041 47.1886L172.259 26.9554C174.567 24.0768 179.211 25.7084 179.211 29.3976V29.3976C179.211 33.0787 183.838 34.7151 186.152 31.8526L187.901 29.6893C190.462 26.5215 195.567 28.7623 194.968 32.7918L194.224 37.803C193.633 41.7846 198.63 44.0475 201.233 40.9763L203.232 38.6166C205.192 36.3029 208.973 37.6892 208.973 40.7218V40.7218C208.973 43.9612 213.188 45.2138 214.957 42.5L224.621 27.6751C226.674 24.5254 231.544 25.6914 231.949 29.4294L234.136 49.655C234.549 53.4784 239.593 54.5725 241.554 51.2642L247.652 40.9742C249.533 37.7998 254.343 38.6486 255.024 42.2752L255.383 44.1865C256.08 47.8943 261.051 48.6652 262.838 45.3424L273.703 25.134C275.537 21.7234 280.663 22.6483 281.189 26.4847L281.603 29.5084C282.08 32.9838 286.715 33.8378 288.399 30.7606V30.7606C290.207 27.457 295.228 28.7411 295.228 32.5071V44.0172C295.228 48.0359 300.49 49.5451 302.62 46.1373L315.117 26.1414C317.247 22.7336 322.509 24.2427 322.509 28.2614V29.924C322.509 33.3137 326.461 35.1669 329.067 32.9993L336.811 26.5581C339.835 24.0425 344.293 26.9453 343.216 30.7287L341.863 35.4798C340.632 39.8061 346.374 42.558 348.975 38.8873L357.057 27.4776C359.234 24.4044 364.064 25.7683 364.312 29.5262L365.069 40.9998C365.313 44.6924 370.009 46.1024 372.247 43.1549L383.941 27.7492C386.258 24.6968 391.127 26.3355 391.127 30.1678V38.7612C391.127 42.6931 396.206 44.2654 398.428 41.0214L414 18.2828" stroke="#F05629" stroke-width="36" stroke-linecap="round" stroke-linejoin="round"/>
</svg>
