<svg width="20" height="20" viewBox="0 0 20 20" fill="none" xmlns="http://www.w3.org/2000/svg">
<path d="M4.16797 12.4993H3.33464C2.89261 12.4993 2.46868 12.3238 2.15612 12.0112C1.84356 11.6986 1.66797 11.2747 1.66797 10.8327V3.33268C1.66797 2.89065 1.84356 2.46673 2.15612 2.15417C2.46868 1.84161 2.89261 1.66602 3.33464 1.66602H10.8346C11.2767 1.66602 11.7006 1.84161 12.0131 2.15417C12.3257 2.46673 12.5013 2.89065 12.5013 3.33268V4.16602M9.16797 7.49935H16.668C17.5884 7.49935 18.3346 8.24554 18.3346 9.16602V16.666C18.3346 17.5865 17.5884 18.3327 16.668 18.3327H9.16797C8.24749 18.3327 7.5013 17.5865 7.5013 16.666V9.16602C7.5013 8.24554 8.24749 7.49935 9.16797 7.49935Z" stroke="#525252" stroke-opacity="0.933333" stroke-width="2" stroke-linecap="round" stroke-linejoin="round"/>
</svg>
