<svg width="44" height="44" viewBox="0 0 44 44" fill="none" xmlns="http://www.w3.org/2000/svg">
<path fill-rule="evenodd" clip-rule="evenodd" d="M19.3346 0.666992C9.02532 0.666992 0.667969 9.02434 0.667969 19.3337C0.667969 29.643 9.02532 38.0003 19.3346 38.0003C23.5275 38.0003 27.3975 36.6179 30.5138 34.284L38.7823 42.5526C39.8237 43.594 41.5122 43.594 42.5536 42.5526C43.595 41.5112 43.595 39.8228 42.5536 38.7814L34.285 30.5128C36.6189 27.3966 38.0013 23.5266 38.0013 19.3337C38.0013 9.02434 29.6439 0.666992 19.3346 0.666992ZM6.0013 19.3337C6.0013 11.9699 11.9708 6.00033 19.3346 6.00033C26.6984 6.00033 32.668 11.9699 32.668 19.3337C32.668 26.6975 26.6984 32.667 19.3346 32.667C11.9708 32.667 6.0013 26.6975 6.0013 19.3337Z" fill="#1B1B1B"/>
</svg>
