<svg width="250" height="250" viewBox="0 0 250 250" fill="none" xmlns="http://www.w3.org/2000/svg">
<path fill-rule="evenodd" clip-rule="evenodd" d="M125.001 208.333C171.025 208.333 208.335 171.023 208.335 124.999C208.335 78.9756 171.025 41.666 125.001 41.666C78.9776 41.666 41.668 78.9756 41.668 124.999C41.668 171.023 78.9776 208.333 125.001 208.333Z" fill="#FFE3CE"/>
<path fill-rule="evenodd" clip-rule="evenodd" d="M148.115 97.6598C151.708 93.1675 158.264 92.4392 162.756 96.033C167.248 99.6268 167.977 106.182 164.383 110.674L122.716 162.758C118.838 167.606 111.606 168.006 107.216 163.616L86.383 142.783C82.315 138.715 82.315 132.119 86.383 128.051C90.451 123.983 97.0464 123.983 101.114 128.051L113.718 140.655L148.115 97.6598Z" fill="#F7941C"/>
</svg>
