<svg width="17" height="16" viewBox="0 0 17 16" fill="none" xmlns="http://www.w3.org/2000/svg">
<path d="M5.49111 7.55556V8.46222H9.85733L7.99067 10.3289L8.60222 10.9404L11.5258 8.01689L8.60222 5.07645L7.99067 5.68889L9.85733 7.55556L5.49111 7.55556ZM0.5 8.00267C0.5 6.89689 0.709778 5.85689 1.12933 4.88267C1.54948 3.90904 2.11956 3.06193 2.83956 2.34133C3.55956 1.62074 4.40578 1.05037 5.37822 0.630222C6.35067 0.210074 7.39037 0 8.49733 0C9.6043 0 10.6443 0.210074 11.6173 0.630222C12.591 1.04978 13.4381 1.61896 14.1587 2.33778C14.8793 3.05659 15.4496 3.90311 15.8698 4.87733C16.2899 5.85156 16.5 6.89156 16.5 7.99733C16.5 9.10311 16.2899 10.1431 15.8698 11.1173C15.4502 12.091 14.8807 12.9381 14.1613 13.6587C13.4419 14.3793 12.5954 14.9496 11.6218 15.3698C10.6481 15.7899 9.60844 16 8.50267 16C7.39689 16 6.35689 15.7902 5.38267 15.3707C4.40844 14.9511 3.56133 14.381 2.84133 13.6604C2.12133 12.9399 1.55096 12.0936 1.13022 11.1218C0.709481 10.1499 0.499407 9.11022 0.5 8.00267ZM1.38889 8C1.38889 9.98519 2.07778 11.6667 3.45556 13.0444C4.83333 14.4222 6.51481 15.1111 8.5 15.1111C10.4852 15.1111 12.1667 14.4222 13.5444 13.0444C14.9222 11.6667 15.6111 9.98519 15.6111 8C15.6111 6.01481 14.9222 4.33333 13.5444 2.95556C12.1667 1.57778 10.4852 0.888889 8.5 0.888889C6.51481 0.888889 4.83333 1.57778 3.45556 2.95556C2.07778 4.33333 1.38889 6.01481 1.38889 8Z" fill="#B4B4B4"/>
</svg>
