<svg width="16" height="16" viewBox="0 0 16 16" fill="none" xmlns="http://www.w3.org/2000/svg">
<path d="M4.99111 7.55556V8.46222H9.35733L7.49067 10.3289L8.10222 10.9404L11.0258 8.01689L8.10222 5.07645L7.49067 5.68889L9.35733 7.55556L4.99111 7.55556ZM0 8.00267C0 6.89689 0.209778 5.85689 0.629333 4.88267C1.04948 3.90904 1.61956 3.06193 2.33956 2.34133C3.05956 1.62074 3.90578 1.05037 4.87822 0.630222C5.85067 0.210074 6.89037 0 7.99733 0C9.1043 0 10.1443 0.210074 11.1173 0.630222C12.091 1.04978 12.9381 1.61896 13.6587 2.33778C14.3793 3.05659 14.9496 3.90311 15.3698 4.87733C15.7899 5.85156 16 6.89156 16 7.99733C16 9.10311 15.7899 10.1431 15.3698 11.1173C14.9502 12.091 14.3807 12.9381 13.6613 13.6587C12.9419 14.3793 12.0954 14.9496 11.1218 15.3698C10.1481 15.7899 9.10844 16 8.00267 16C6.89689 16 5.85689 15.7902 4.88267 15.3707C3.90844 14.9511 3.06133 14.381 2.34133 13.6604C1.62133 12.9399 1.05096 12.0936 0.630221 11.1218C0.209481 10.1499 -0.000593185 9.11022 0 8.00267ZM0.888888 8C0.888888 9.98519 1.57778 11.6667 2.95556 13.0444C4.33333 14.4222 6.01481 15.1111 8 15.1111C9.98519 15.1111 11.6667 14.4222 13.0444 13.0444C14.4222 11.6667 15.1111 9.98519 15.1111 8C15.1111 6.01481 14.4222 4.33333 13.0444 2.95556C11.6667 1.57778 9.98519 0.888889 8 0.888889C6.01481 0.888889 4.33333 1.57778 2.95556 2.95556C1.57778 4.33333 0.888888 6.01481 0.888888 8Z" fill="#909090"/>
</svg>
