<svg width="106" height="98" viewBox="0 0 106 98" fill="none" xmlns="http://www.w3.org/2000/svg">
<path d="M37.7504 65.0176H53.0004M53.0004 65.0176H68.2504M53.0004 65.0176V97.5176M2.75044 52.0176C2.75043 71.465 1.67802 81.6182 15.2504 83.0818M15.2504 83.0818C17.7298 83.3491 20.6979 83.3265 24.2504 83.0176M15.2504 83.0818V95.0176M15.2504 95.0176H8.25043M15.2504 95.0176H22.7504M103.25 51.5176C103.25 70.965 104.323 81.1182 90.7505 82.5818M90.7505 82.5818C88.2711 82.8491 85.3031 82.8265 81.7505 82.5176M90.7505 82.5818V94.5176M90.7505 94.5176H97.7505M90.7505 94.5176H83.2505" stroke="#525252" stroke-opacity="0.933333" stroke-width="4"/>
<path d="M10.75 52.5176C12.7615 49.2778 14.3467 47.9058 19.25 47.5176C19.25 47.5176 21.25 47.519 24.25 47.5176C27.25 47.5162 30.25 54.5176 30.25 54.5176C30.25 54.5176 38.75 54.1227 40.75 54.5176C42.75 54.9125 43.25 59.0176 40.75 60.0176C38.25 61.0176 28.75 60.0176 28.75 60.0176C26.7371 59.6807 25.9616 58.8449 24.75 57.0176L24.25 68.5176H35.75C35.75 68.5176 43.25 89.0176 42.25 93.0176C41.25 97.0176 35.75 97.5176 33.25 94.0176C30.75 90.5176 28.75 77.0176 28.75 77.0176H14.25C11.0026 76.2259 10.4273 75.2986 9.75 73.5176L10.75 52.5176Z" fill="#525252" fill-opacity="0.933333"/>
<path d="M95.4434 52.5195C93.4318 49.2798 91.8467 47.9078 86.9434 47.5195C86.9434 47.5195 84.9434 47.521 81.9434 47.5195C78.9434 47.5181 75.9434 54.5195 75.9434 54.5195C75.9434 54.5195 67.4434 54.1246 65.4434 54.5195C63.4434 54.9144 62.9434 59.0195 65.4434 60.0195C67.9434 61.0195 77.4434 60.0195 77.4434 60.0195C79.4562 59.6827 80.2317 58.8469 81.4434 57.0195L81.9434 68.5195H70.4434C70.4434 68.5195 62.9434 89.0195 63.9434 93.0195C64.9434 97.0195 70.4434 97.5195 72.9434 94.0195C75.4434 90.5195 77.4434 77.0195 77.4434 77.0195H91.9434C95.1907 76.2279 95.7661 75.3005 96.4434 73.5195L95.4434 52.5195Z" fill="#525252" fill-opacity="0.933333"/>
<path d="M85.5638 44.8748C88.7911 44.8748 91.3971 39.5428 91.3971 36.3155C91.3971 33.0883 88.7911 30.4824 85.5638 30.4824C82.3364 30.4824 79.7305 33.0883 79.7305 36.3155C79.7305 39.5428 82.3364 44.8748 85.5638 44.8748Z" fill="#525252" fill-opacity="0.933333"/>
<path d="M19.5638 44.8748C22.7911 44.8748 25.3971 39.5428 25.3971 36.3155C25.3971 33.0883 22.7911 30.4824 19.5638 30.4824C16.3364 30.4824 13.7305 33.0883 13.7305 36.3155C13.7305 39.5428 16.3364 44.8748 19.5638 44.8748Z" fill="#525252" fill-opacity="0.933333"/>
<path fill-rule="evenodd" clip-rule="evenodd" d="M39.25 34.5176C40.3466 35.6147 40.6937 36.5935 40.75 39.0176H45.75C45.9348 35.7489 46.5272 34.7012 48.25 34.0176C50.2172 33.8361 53.25 36.0176 53.25 36.0176L56.25 34.0176C55.3521 31.8033 54.8501 30.562 55.75 28.5176C56.8366 26.2992 58.2525 25.9976 61.25 26.0176V21.5176C58.6103 20.8512 57.25 20.0176 57.25 18.5176C57.2989 17.038 58.1445 15.8005 60.25 14.5176L58.25 10.0176C56.0789 11.0518 53.75 11.0176 52.75 10.5176C51.75 10.0176 51.0953 7.87644 51.25 4.51758L47.25 3.51758C45.9085 6.21796 45.3532 7.01023 43.25 7.51758C41.655 6.49641 40.7651 5.85675 39.25 3.51758L34.25 5.51758C35.6649 8.29177 35.4235 9.31075 34.75 11.0176C32.7891 11.9202 31.4906 12.1596 28.75 11.0176L26.75 14.0176C28.8047 15.5296 29.75 18.0176 29.75 19.0176C29.75 20.0176 28.4995 21.8829 25.75 22.5176L26.75 26.5176C30.1466 26.0764 31.6442 26.1606 32.25 28.0176C32.8741 29.2823 32.2641 30.8449 30.75 34.0176L33.75 36.0176C35.7756 33.9871 36.7919 33.421 38.25 34.0176L39.25 34.5176ZM44.25 28.5176C48.3921 28.5176 51.75 25.1597 51.75 21.0176C51.75 16.8754 48.3921 13.5176 44.25 13.5176C40.1079 13.5176 36.75 16.8754 36.75 21.0176C36.75 25.1597 40.1079 28.5176 44.25 28.5176Z" fill="#F05629"/>
<path fill-rule="evenodd" clip-rule="evenodd" d="M73.6067 23.8551C74.4739 24.4448 74.8284 25.0508 75.1728 26.6535L78.4932 26.0201C78.2019 23.8261 78.4626 23.0553 79.5201 22.383C80.8035 22.0133 83.0939 23.0779 83.0939 23.0779L84.8328 21.3697C83.956 20.013 83.4654 19.2522 83.8041 17.7806C84.2446 16.1698 85.1467 15.7901 87.1399 15.4237L86.5698 12.4353C84.7325 12.3271 83.7235 11.9458 83.5335 10.9497C83.3786 9.96094 83.7834 9.03202 85.0191 7.91338L83.1209 5.17834C81.8101 6.14016 80.2592 6.41243 79.5318 6.20706C78.8044 6.00168 78.0984 4.66272 77.7756 2.41256L74.9926 2.25515C74.4438 4.21835 74.1754 4.81482 72.843 5.41815C71.6544 4.94205 70.9824 4.62999 69.68 3.26849L66.6129 5.23C67.9039 6.89308 67.8727 7.60034 67.6416 8.81913C66.4537 9.66694 65.6218 9.99036 63.6571 9.57914L62.7089 11.8247C64.265 12.5686 65.2079 14.1011 65.3345 14.7651C65.4612 15.4292 64.867 16.8263 63.1215 17.5961L64.2923 20.1258C66.4921 19.4025 67.4972 19.2688 68.1348 20.4252C68.7094 21.1861 68.5022 22.301 67.8986 24.5997L70.1442 25.5479C71.2322 23.9429 71.8354 23.4382 72.8793 23.6497L73.6067 23.8551ZM76.1669 19.2365C78.9177 18.7118 80.7222 16.0565 80.1976 13.3058C79.6729 10.5551 77.0176 8.75053 74.2669 9.27521C71.5162 9.79988 69.7116 12.4551 70.2363 15.2058C70.761 17.9566 73.4162 19.7611 76.1669 19.2365Z" fill="#F05629"/>
</svg>
