<svg width="36" height="36" viewBox="0 0 36 36" fill="none" xmlns="http://www.w3.org/2000/svg">
<path d="M10.0477 10.0484C8.81719 11.2789 7.93125 12.7203 7.38984 14.2531C6.975 15.4273 5.68828 16.039 4.52109 15.6242C3.35391 15.2093 2.73516 13.9226 3.15 12.7554C3.90937 10.5968 5.14687 8.57887 6.8625 6.86325C12.9937 0.731998 22.9148 0.710904 29.0672 6.79294L31.9922 3.86794C32.4773 3.38278 33.2016 3.24215 33.8344 3.50231C34.4672 3.76247 34.875 4.38122 34.875 5.06325V14.0632C34.875 14.9984 34.1227 15.7507 33.1875 15.7507H24.1875C23.5055 15.7507 22.8867 15.3429 22.6266 14.7101C22.3664 14.0773 22.507 13.3531 22.9922 12.8679L25.882 9.97809C21.4805 5.65387 14.4141 5.67497 10.0406 10.0484H10.0477ZM1.125 21.9382C1.125 21.0031 1.87734 20.2507 2.8125 20.2507H11.8125C12.4945 20.2507 13.1133 20.6586 13.3734 21.2914C13.6336 21.9242 13.493 22.6484 13.0078 23.1336L10.118 26.0234C14.5195 30.3476 21.5859 30.3265 25.9594 25.9531C27.1898 24.7226 28.0758 23.2812 28.6172 21.7484C29.032 20.5742 30.3187 19.9625 31.4859 20.3773C32.6531 20.7922 33.2719 22.0789 32.857 23.2461C32.0977 25.3976 30.8602 27.4156 29.1375 29.1382C23.0063 35.2695 13.0852 35.2906 6.93281 29.2086L4.00781 32.1336C3.52266 32.6187 2.79844 32.7593 2.16562 32.4992C1.53281 32.239 1.125 31.6203 1.125 30.9382V21.9453V21.9382Z" fill-opacity="0.933333"/>
</svg>
