<svg width="16" height="17" viewBox="0 0 16 17" fill="none" xmlns="http://www.w3.org/2000/svg">
<path d="M4.99111 8.05556V8.96222H9.35733L7.49067 10.8289L8.10222 11.4404L11.0258 8.51689L8.10222 5.57645L7.49067 6.18889L9.35733 8.05556H4.99111ZM0 8.50267C0 7.39689 0.209778 6.35689 0.629333 5.38267C1.04948 4.40904 1.61956 3.56193 2.33956 2.84133C3.05956 2.12074 3.90578 1.55037 4.87822 1.13022C5.85067 0.710074 6.89037 0.5 7.99733 0.5C9.1043 0.5 10.1443 0.710074 11.1173 1.13022C12.091 1.54978 12.9381 2.11896 13.6587 2.83778C14.3793 3.55659 14.9496 4.40311 15.3698 5.37733C15.7899 6.35156 16 7.39156 16 8.49733C16 9.60311 15.7899 10.6431 15.3698 11.6173C14.9502 12.591 14.3807 13.4381 13.6613 14.1587C12.9419 14.8793 12.0954 15.4496 11.1218 15.8698C10.1481 16.2899 9.10844 16.5 8.00267 16.5C6.89689 16.5 5.85689 16.2902 4.88267 15.8707C3.90844 15.4511 3.06133 14.881 2.34133 14.1604C1.62133 13.4399 1.05096 12.5936 0.630221 11.6218C0.209481 10.6499 -0.000593185 9.61022 0 8.50267ZM0.888888 8.5C0.888888 10.4852 1.57778 12.1667 2.95556 13.5444C4.33333 14.9222 6.01481 15.6111 8 15.6111C9.98519 15.6111 11.6667 14.9222 13.0444 13.5444C14.4222 12.1667 15.1111 10.4852 15.1111 8.5C15.1111 6.51481 14.4222 4.83333 13.0444 3.45556C11.6667 2.07778 9.98519 1.38889 8 1.38889C6.01481 1.38889 4.33333 2.07778 2.95556 3.45556C1.57778 4.83333 0.888888 6.51481 0.888888 8.5Z" fill="#F9F9F9"/>
</svg>
