<svg width="12" height="6" viewBox="0 0 12 6" fill="none" xmlns="http://www.w3.org/2000/svg">
<path d="M11.0685 0.156866L6.38346 4.76787C6.28124 4.86899 6.14325 4.92572 5.99946 4.92572C5.85567 4.92572 5.71768 4.86899 5.61546 4.76787L0.930459 0.157866C0.827603 0.0567908 0.689166 0.000154495 0.544959 0.000154495C0.400752 0.000154495 0.262315 0.0567908 0.159459 0.157866C0.10881 0.207243 0.0685587 0.266259 0.0410748 0.331436C0.0135908 0.396613 -0.00056839 0.466632 -0.00056839 0.537367C-0.00056839 0.608101 0.0135908 0.67812 0.0410748 0.743297C0.0685587 0.808474 0.10881 0.867489 0.159459 0.916866L4.84346 5.52687C5.15198 5.82979 5.56708 5.99951 5.99946 5.99951C6.43184 5.99951 6.84694 5.82979 7.15546 5.52687L11.8395 0.916866C11.8903 0.867474 11.9306 0.808396 11.9582 0.743127C11.9858 0.677857 12 0.607721 12 0.536866C12 0.466011 11.9858 0.395876 11.9582 0.330606C11.9306 0.265337 11.8903 0.206259 11.8395 0.156866C11.7366 0.0557904 11.5982 -0.000845909 11.454 -0.000845909C11.3098 -0.000845909 11.1713 0.0557904 11.0685 0.156866Z" fill="#1B1B1B"/>
</svg>
