<svg width="18" height="14" viewBox="0 0 18 14" fill="none" xmlns="http://www.w3.org/2000/svg">
<path d="M2.33464 13.6668C1.8763 13.6668 1.48408 13.5038 1.15797 13.1777C0.831858 12.8516 0.668524 12.4591 0.667969 12.0002V2.00016C0.667969 1.54183 0.831302 1.14961 1.15797 0.823496C1.48464 0.497385 1.87686 0.334052 2.33464 0.333496H15.668C16.1263 0.333496 16.5188 0.496829 16.8455 0.823496C17.1721 1.15016 17.3352 1.54238 17.3346 2.00016V12.0002C17.3346 12.4585 17.1716 12.851 16.8455 13.1777C16.5194 13.5043 16.1269 13.6674 15.668 13.6668H2.33464ZM9.0013 7.8335L2.33464 3.66683V12.0002H15.668V3.66683L9.0013 7.8335ZM9.0013 6.16683L15.668 2.00016H2.33464L9.0013 6.16683ZM2.33464 3.66683V2.00016V12.0002V3.66683Z" fill="#1B1B1B"/>
</svg>
